<svg width="41" height="40" viewBox="0 0 41 40" fill="none" xmlns="http://www.w3.org/2000/svg">
<mask id="mask0_105102_3487" style="mask-type:alpha" maskUnits="userSpaceOnUse" x="4" y="4" width="33" height="32">
<rect x="4.75" y="4" width="32" height="32" fill="#D9D9D9"/>
</mask>
<g mask="url(#mask0_105102_3487)">
<path d="M15.1834 21.3333L21.7167 27.8667C21.9834 28.1333 22.1111 28.4444 22.1 28.8C22.0889 29.1555 21.95 29.4667 21.6834 29.7333C21.4167 29.9778 21.1056 30.1055 20.75 30.1167C20.3945 30.1278 20.0834 30 19.8167 29.7333L11.0167 20.9333C10.8834 20.8 10.7889 20.6555 10.7334 20.5C10.6778 20.3444 10.65 20.1778 10.65 20C10.65 19.8222 10.6778 19.6555 10.7334 19.5C10.7889 19.3444 10.8834 19.2 11.0167 19.0667L19.8167 10.2667C20.0611 10.0222 20.3667 9.89999 20.7334 9.89999C21.1 9.89999 21.4167 10.0222 21.6834 10.2667C21.95 10.5333 22.0834 10.85 22.0834 11.2167C22.0834 11.5833 21.95 11.9 21.6834 12.1667L15.1834 18.6667H30.0834C30.4611 18.6667 30.7778 18.7944 31.0334 19.05C31.2889 19.3055 31.4167 19.6222 31.4167 20C31.4167 20.3778 31.2889 20.6944 31.0334 20.95C30.7778 21.2055 30.4611 21.3333 30.0834 21.3333H15.1834Z" fill="#01BEE8"/>
</g>
</svg>
