<svg width="41" height="40" viewBox="0 0 41 40" fill="none" xmlns="http://www.w3.org/2000/svg">
<mask id="mask0_105102_3491" style="mask-type:alpha" maskUnits="userSpaceOnUse" x="4" y="4" width="33" height="32">
<rect x="4.75" y="4" width="32" height="32" fill="#D9D9D9"/>
</mask>
<g mask="url(#mask0_105102_3491)">
<path d="M26.3166 21.3333H11.4166C11.0389 21.3333 10.7222 21.2055 10.4666 20.95C10.2111 20.6944 10.0833 20.3778 10.0833 20C10.0833 19.6222 10.2111 19.3055 10.4666 19.05C10.7222 18.7944 11.0389 18.6667 11.4166 18.6667H26.3166L19.7833 12.1333C19.5166 11.8667 19.3889 11.5555 19.4 11.2C19.4111 10.8444 19.55 10.5333 19.8166 10.2667C20.0833 10.0222 20.3944 9.89444 20.75 9.88333C21.1055 9.87222 21.4166 9.99999 21.6833 10.2667L30.4833 19.0667C30.6166 19.2 30.7111 19.3444 30.7666 19.5C30.8222 19.6555 30.85 19.8222 30.85 20C30.85 20.1778 30.8222 20.3444 30.7666 20.5C30.7111 20.6555 30.6166 20.8 30.4833 20.9333L21.6833 29.7333C21.4389 29.9778 21.1333 30.1 20.7666 30.1C20.4 30.1 20.0833 29.9778 19.8166 29.7333C19.55 29.4667 19.4166 29.15 19.4166 28.7833C19.4166 28.4167 19.55 28.1 19.8166 27.8333L26.3166 21.3333Z" fill="#01BEE8"/>
</g>
</svg>
